<?xml version="1.0" encoding="UTF-8" standalone="no"?>
<svg width="40px" height="80px" viewBox="0 0 40 80" version="1.1" xmlns="http://www.w3.org/2000/svg" xmlns:xlink="http://www.w3.org/1999/xlink">
    <!-- Generator: Sketch 40.3 (33839) - http://www.bohemiancoding.com/sketch -->
    <title>Plant 3</title>
    <desc>Created with Sketch.</desc>
    <defs></defs>
    <g id="Page-1" stroke="none" stroke-width="1" fill="none" fill-rule="evenodd">
        <g id="Plant-3" fill="#E8E8EC">
            <g id="Almost-There-Plant" transform="translate(0.000000, 9.000000)">
                <g id="Group-8">
                    <path d="M7.266,66.3798927 C9.536,69.2036319 14.736,70.6144262 19.934,70.6144262 C25.136,70.6144262 30.332,69.2036319 32.604,66.3798927 C32.766,65.5110498 40,26.6625917 40,25.7722428 C40,20.4538063 25.324,19 20,19 C10.016,19 1.42108547e-14,21.6710466 1.42108547e-14,25.7614898 C1.42108547e-14,26.6346339 7.112,65.5218028 7.266,66.3798927 L7.266,66.3798927 Z M20.102,30.0691438 C11.68,30.0691438 4.852,28.4647954 4.852,26.4840918 C4.852,24.5033882 11.68,22.8990398 20.102,22.8990398 C28.524,22.8990398 35.35,24.5033882 35.35,26.4840918 C35.35,28.4647954 28.524,30.0691438 20.102,30.0691438 L20.102,30.0691438 Z" id="Shape"></path>
                    <ellipse id="Oval-13" cx="20.3649998" cy="29.5336538" rx="11.3649998" ry="3.53365385"></ellipse>
                    <g id="Group-4" transform="translate(14.500000, 14.000000) scale(-1, 1) translate(-14.500000, -14.000000) translate(7.000000, 0.000000)">
                        <path d="M0.906070345,9.87745032 C2.41273701,7.72983921 5.21940368,5.41950588 7.17273701,4.98128365 C3.18107034,7.77011699 0.947737012,11.6835059 0.657737012,16.1108392 L2.34273701,16.1108392 C2.30440368,14.4385059 2.55107034,12.3327837 3.17107034,11.3838392 C4.68940368,11.8703948 6.37773701,11.5852281 7.83273701,10.3962281 C10.7060703,8.03917254 9.62773701,2.11511699 14.6860703,1.43200588 C7.90273701,-2.15110523 1.44773701,1.63178365 0.214403678,5.73528365 C-0.203929655,7.12406143 -0.0289296551,8.5837281 0.906070345,9.87745032 Z" id="Path"></path>
                        <path d="M0.734049479,15.6282891 C0.159469264,18.8486881 0.333251953,26.9383206 0.333251953,26.9383206 C0.333251953,26.9383206 2.9019165,29.3430888 2.53712972,26.6769477 C2.17234294,24.0108066 2.35117594,15.6282891 2.35117594,15.6282891 C2.35117594,15.6282891 1.30862969,12.4078902 0.734049479,15.6282891 Z" id="Path-2"></path>
                    </g>
                </g>
            </g>
        </g>
    </g>
</svg>