<?xml version="1.0" encoding="UTF-8" standalone="no"?>
<svg width="40px" height="80px" viewBox="0 0 40 80" version="1.1" xmlns="http://www.w3.org/2000/svg" xmlns:xlink="http://www.w3.org/1999/xlink">
    <!-- Generator: Sketch 40.3 (33839) - http://www.bohemiancoding.com/sketch -->
    <title>Plant 4</title>
    <desc>Created with Sketch.</desc>
    <defs></defs>
    <g id="Page-1" stroke="none" stroke-width="1" fill="none" fill-rule="evenodd">
        <g id="Plant-4" fill="#E8E8EC">
            <g id="Approved-Plant">
                <g id="Group-3">
                    <path d="M7.266,75.3798927 C9.536,78.2036319 14.736,79.6144262 19.934,79.6144262 C25.136,79.6144262 30.332,78.2036319 32.604,75.3798927 C32.766,74.5110498 40,35.6625917 40,34.7722428 C40,29.4538063 25.324,28 20,28 C10.016,28 1.42108547e-14,30.6710466 1.42108547e-14,34.7614898 C1.42108547e-14,35.6346339 7.112,74.5218028 7.266,75.3798927 L7.266,75.3798927 Z M20.102,39.0691438 C11.68,39.0691438 4.852,37.4647954 4.852,35.4840918 C4.852,33.5033882 11.68,31.8990398 20.102,31.8990398 C28.524,31.8990398 35.35,33.5033882 35.35,35.4840918 C35.35,37.4647954 28.524,39.0691438 20.102,39.0691438 L20.102,39.0691438 Z" id="Shape"></path>
                    <ellipse id="Oval-13" cx="20.3649998" cy="38.5336538" rx="11.3649998" ry="3.53365385"></ellipse>
                    <g id="Group-2" transform="translate(19.000000, 0.000000)">
                        <path d="M1.20809379,12.9428659 C3.21698268,10.1287548 6.9592049,7.10142149 9.56364935,6.52719927 C4.24142713,10.1815326 1.26364935,15.3094215 0.876982682,21.1107548 L3.12364935,21.1107548 C3.07253824,18.9194215 3.40142713,16.1601993 4.22809379,14.9167548 C6.25253824,15.5543104 8.50364935,15.1806437 10.4436493,13.6226437 C14.2747605,10.5340882 12.8369827,2.7715326 19.5814271,1.87642149 C10.5369827,-2.81868962 1.93031602,2.13819927 0.285871571,7.51519927 C-0.271906207,9.33497705 -0.0385728734,11.2476437 1.20809379,12.9428659 Z" id="Path"></path>
                        <path d="M0.978732639,20.4784478 C0.212625685,24.6982809 0.444335938,35.298489 0.444335938,35.298489 C0.444335938,35.298489 3.86922201,38.4495646 3.38283963,34.9560004 C2.89645725,31.4624363 3.13490126,20.4784478 3.13490126,20.4784478 C3.13490126,20.4784478 1.74483959,16.2586147 0.978732639,20.4784478 Z" id="Path-2"></path>
                    </g>
                    <g id="Group-2" transform="translate(13.500000, 24.000000) scale(-1, 1) rotate(23.000000) translate(-13.500000, -24.000000) translate(8.000000, 14.000000)">
                        <path d="M0.664451586,6.99614375 C1.76934048,5.47500261 3.8275627,3.83860621 5.26000714,3.52821582 C2.33278492,5.50353114 0.695007142,8.27536297 0.482340475,11.4112188 L1.71800714,11.4112188 C1.68989603,10.2267143 1.87078492,8.73524285 2.32545159,8.06311072 C3.43889603,8.40773534 4.67700714,8.20575336 5.74400714,7.3635912 C7.85111825,5.69410171 7.06034048,1.49812573 10.7697849,1.01428189 C5.79534048,-1.52361601 1.06167381,1.15578339 0.157229364,4.06226988 C-0.149548414,5.04593354 -0.0212150804,6.07980741 0.664451586,6.99614375 Z" id="Path"></path>
                        <path d="M0.538302951,11.0694312 C0.116944127,13.3504221 0.244384766,19.0802643 0.244384766,19.0802643 C0.244384766,19.0802643 2.1280721,20.7835484 1.86056179,18.8951354 C1.59305149,17.0067223 1.72419569,11.0694312 1.72419569,11.0694312 C1.72419569,11.0694312 0.959661776,8.78844037 0.538302951,11.0694312 Z" id="Path-2"></path>
                    </g>
                </g>
            </g>
        </g>
    </g>
</svg>