<?xml version="1.0" encoding="UTF-8" standalone="no"?>
<svg width="40px" height="80px" viewBox="0 0 40 80" version="1.1" xmlns="http://www.w3.org/2000/svg" xmlns:xlink="http://www.w3.org/1999/xlink">
    <!-- Generator: Sketch 40.3 (33839) - http://www.bohemiancoding.com/sketch -->
    <title>Plant 1</title>
    <desc>Created with Sketch.</desc>
    <defs></defs>
    <g id="Page-1" stroke="none" stroke-width="1" fill="none" fill-rule="evenodd">
        <g id="Plant-1" fill="#E8E8EC">
            <g id="Not-Yet-Plant" transform="translate(0.000000, 28.000000)">
                <path d="M7.266,47.3798927 C9.536,50.2036319 14.736,51.6144262 19.934,51.6144262 C25.136,51.6144262 30.332,50.2036319 32.604,47.3798927 C32.766,46.5110498 40,7.66259169 40,6.77224284 C40,1.45380634 25.324,1.42108547e-14 20,1.42108547e-14 C10.016,1.42108547e-14 1.42108547e-14,2.67104656 1.42108547e-14,6.76148983 C1.42108547e-14,7.63463388 7.112,46.5218028 7.266,47.3798927 L7.266,47.3798927 Z M20.102,11.0691438 C11.68,11.0691438 4.852,9.46479541 4.852,7.4840918 C4.852,5.50338819 11.68,3.89903978 20.102,3.89903978 C28.524,3.89903978 35.35,5.50338819 35.35,7.4840918 C35.35,9.46479541 28.524,11.0691438 20.102,11.0691438 L20.102,11.0691438 Z" id="Shape"></path>
            </g>
        </g>
    </g>
</svg>